Coordinates
version=1
nRows=10
nColumns=27
inDegrees=yes

Units are S.I. units (second, meters, Newtons, ...)
If the header above contains a line with 'inDegrees', this indicates whether rotational values are in degrees (yes) or radians (no).

endheader
time	pelvis_rotation	pelvis_tilt	pelvis_list	pelvis_tx	pelvis_ty	pelvis_tz	hip_flexion_r	hip_adduction_r	hip_rotation_r	knee_angle_r	knee_rotation_r	knee_adduction_r	knee_angle_r_beta	ankle_angle_r	subtalar_angle_r	mtp_angle_r	hip_flexion_l	hip_adduction_l	hip_rotation_l	knee_angle_l	knee_rotation_l	knee_adduction_l	knee_angle_l_beta	ankle_angle_l	subtalar_angle_l	mtp_angle_l
      3.94500000	      9.87728198	    -43.00032639	      8.16076095	     -0.00259937	      0.63068524	     -1.16177880	    110.34993733	    -48.91479475	     -0.19834698	     79.47233144	      0.00000000	      9.79360755	      1.38705385	      8.80452476	      0.00000000	      0.00000000	    105.91294545	    -27.56382318	     -1.67775339	     74.37399917	      0.00000000	     -9.91896537	      1.29807116	      4.59472895	      0.00000000	      0.00000000
      3.95000000	      9.86522345	    -43.02200325	      8.16361706	     -0.00245774	      0.62901413	     -1.16157000	    110.71922541	    -48.92400653	      0.07979491	     79.79278970	      0.00000000	      9.79472345	      1.39264690	      8.91359062	      0.00000000	      0.00000000	    106.19402424	    -27.63624694	     -1.52359658	     74.69673202	      0.00000000	     -9.91951319	      1.30370391	      4.69183561	      0.00000000	      0.00000000
      3.95500000	      9.33361847	    -43.11590726	      8.14499618	     -0.00268309	      0.62737056	     -1.16116104	    111.32093344	    -48.23136871	      0.78593643	     80.07900216	      0.00000000	      9.61182519	      1.39764225	      9.06230774	      0.00000000	      0.00000000	    106.36141719	    -28.18783657	     -1.58359013	     75.00122808	      0.00000000	     -9.84963919	      1.30901837	      4.76962753	      0.00000000	      0.00000000
      3.96000000	      9.88121908	    -43.03998098	      8.16636543	     -0.00212010	      0.62565638	     -1.16118958	    111.41307919	    -48.97723714	      0.63773408	     80.44507650	      0.00000000	      9.79663418	      1.40403145	      9.17476359	      0.00000000	      0.00000000	    106.75201314	    -27.73382114	     -1.18293912	     75.34428574	      0.00000000	     -9.92050518	      1.31500586	      4.86155176	      0.00000000	      0.00000000
      3.96500000	      9.85978128	    -43.07964314	      8.20201181	     -0.00203881	      0.62396407	     -1.16104185	    111.84766466	    -48.94682109	      0.99377739	     80.76373372	      0.00000000	      9.79753737	      1.40959307	      9.28256083	      0.00000000	      0.00000000	    107.03603486	    -27.81850499	     -1.06222095	     75.66654616	      0.00000000	     -9.92123565	      1.32063036	      4.94050979	      0.00000000	      0.00000000
      3.97000000	      9.83447364	    -43.08404369	      8.21797446	     -0.00186725	      0.62228375	     -1.16086454	    112.22804135	    -48.93842703	      1.31546064	     81.08838088	      0.00000000	      9.79857307	      1.41525923	      9.39366171	      0.00000000	      0.00000000	    107.29066025	    -27.90042247	     -0.92043835	     75.98790381	      0.00000000	     -9.92176675	      1.32623911	      4.99930812	      0.00000000	      0.00000000
      3.97500000	      9.32161653	    -43.15927237	      8.19179243	     -0.00205059	      0.62068523	     -1.16050023	    112.75528232	    -48.27002782	      1.95260398	     81.35302669	      0.00000000	      9.61898980	      1.41987817	      9.54857116	      0.00000000	      0.00000000	    107.43828613	    -28.41563976	     -0.94666475	     76.28054211	      0.00000000	     -9.85337905	      1.33134662	      5.11321308	      0.00000000	      0.00000000
      3.98000000	      9.84031304	    -43.09115410	      8.23616789	     -0.00152106	      0.61897269	     -1.16057058	    112.91256903	    -48.97690652	      1.88360830	     81.71109605	      0.00000000	      9.80034484	      1.42612766	      9.64853141	      0.00000000	      0.00000000	    107.80750142	    -27.98192261	     -0.58723309	     76.61689372	      0.00000000	     -9.92250847	      1.33721706	      5.20418130	      0.00000000	      0.00000000
      3.98500000	      9.29653652	    -43.15772825	      8.20724973	     -0.00168874	      0.61735657	     -1.16020970	    113.44082753	    -48.28272440	      2.52658600	     81.98014970	      0.00000000	      9.62225060	      1.43082353	      9.78363318	      0.00000000	      0.00000000	    107.94507504	    -28.53140940	     -0.62199068	     76.91513878	      0.00000000	     -9.85509085	      1.34242242	      5.28868574	      0.00000000	      0.00000000
      3.99000000	      9.80578978	    -43.08823640	      8.24983579	     -0.00115158	      0.61564122	     -1.16028801	    113.60412448	    -48.98380658	      2.46458183	     82.33924057	      0.00000000	      9.80235475	      1.43709085	      9.91458680	      0.00000000	      0.00000000	    108.30807327	    -28.10032169	     -0.26499793	     77.25222131	      0.00000000	     -9.92341103	      1.34830562	      5.38833893	      0.00000000	      0.00000000
